# xmcd
#
# Track frame offsets:
#	150
#	17619
#	42117
#	63127
#	76803
#	106715
#	123553
#	139835
#	148585
#	158083
#
# Disc length: 2619 seconds
#
# Revision: 0
# Processed by: cddbd v1.4PL0 Copyright (c) Steve Scherf et al.
# Submitted via: MusicWizard 6.0.1
#
DISCID=760a390a
DTITLE=The Tony Rice Unit - Unit Of Measure
DYEAR=2000
DGENRE=Bluegrass
TTITLE0=Manzanita (First Variation)
TTITLE1=House Of The Rising Sun
TTITLE2=Shenandoah
TTITLE3=Gold Rush
TTITLE4=Jerusalem Ridge
TTITLE5=High Noon
TTITLE6=Beaumont Rag
TTITLE7=Swing 42
TTITLE8=An Olde Irish Aire (Danny Boy)
TTITLE9=Sally Goodin
EXTD=
EXTT0=
EXTT1=
EXTT2=
EXTT3=
EXTT4=
EXTT5=
EXTT6=
EXTT7=
EXTT8=
EXTT9=
PLAYORDER=
